<?xml version="1.0" encoding="UTF-8" standalone="no"?>
<!-- Created with Inkscape (http://www.inkscape.org/) -->

<svg
   xmlns:dc="http://purl.org/dc/elements/1.1/"
   xmlns:cc="http://creativecommons.org/ns#"
   xmlns:rdf="http://www.w3.org/1999/02/22-rdf-syntax-ns#"
   xmlns:svg="http://www.w3.org/2000/svg"
   xmlns="http://www.w3.org/2000/svg"
   xmlns:sodipodi="http://sodipodi.sourceforge.net/DTD/sodipodi-0.dtd"
   xmlns:inkscape="http://www.inkscape.org/namespaces/inkscape"
   width="68.330002"
   height="27"
   id="svg2"
   version="1.1"
   inkscape:version="0.48.4 r9939"
   sodipodi:docname="2nice.svg"
   inkscape:export-filename="/home/bielikp/ETH/PLSMT/n2/viewer/img/2nice.png"
   inkscape:export-xdpi="453.33334"
   inkscape:export-ydpi="453.33334">
  <defs
     id="defs4" />
  <sodipodi:namedview
     id="base"
     pagecolor="#ffffff"
     bordercolor="#666666"
     borderopacity="1.0"
     inkscape:pageopacity="0.0"
     inkscape:pageshadow="2"
     inkscape:zoom="11.2"
     inkscape:cx="38.831646"
     inkscape:cy="21.002485"
     inkscape:document-units="px"
     inkscape:current-layer="layer1"
     showgrid="false"
     fit-margin-top="0"
     fit-margin-left="0"
     fit-margin-right="0"
     fit-margin-bottom="0"
     inkscape:window-width="1629"
     inkscape:window-height="930"
     inkscape:window-x="2173"
     inkscape:window-y="133"
     inkscape:window-maximized="0" />
  <metadata
     id="metadata7">
    <rdf:RDF>
      <cc:Work
         rdf:about="">
        <dc:format>image/svg+xml</dc:format>
        <dc:type
           rdf:resource="http://purl.org/dc/dcmitype/StillImage" />
        <dc:title></dc:title>
      </cc:Work>
    </rdf:RDF>
  </metadata>
  <g
     inkscape:label="Layer 1"
     inkscape:groupmode="layer"
     id="layer1"
     transform="translate(-118.12186,-597.27285)">
    <path
       style="fill:#ffffff;stroke:#ffffff;stroke-width:2.20000005;stroke-linejoin:round;stroke-miterlimit:4;stroke-opacity:1;stroke-dasharray:none"
       d="m 140.18436,598.93496 0,24.03125 44.90625,0 0,-24.03125 -44.90625,0 z m 1.25,1.15625 42.65625,0 0,22.0625 -42.65625,0 0,-22.0625 z"
       id="rect3806"
       inkscape:connector-curvature="0" />
    <text
       xml:space="preserve"
       style="font-size:24px;font-style:normal;font-variant:normal;font-weight:normal;font-stretch:normal;line-height:450%;letter-spacing:1.10000002px;word-spacing:3.37999892px;fill:#ffffff;fill-opacity:1;stroke:none;font-family:Ando;-inkscape-font-specification:Ando"
       x="125.09512"
       y="619.50366"
       id="text3768-1"
       sodipodi:linespacing="450%"><tspan
         sodipodi:role="line"
         id="tspan3770-7"
         x="125.09512"
         y="619.50366"
         style="font-style:normal;font-weight:bold;line-height:450%;letter-spacing:1.10000002px;word-spacing:3.37999892px;fill:#ffffff;-inkscape-font-specification:Ando Semi-Bold">2</tspan></text>
    <path
       style="fill:#ffffff;stroke:#ffffff;stroke-width:0;stroke-linejoin:round;stroke-miterlimit:4;stroke-opacity:1;stroke-dasharray:none"
       d="m 141.59061,600.09121 0,21.96875 42.6875,0 0,-21.96875 -42.6875,0 z m 9.25,2.375 c 1.848,0 3.21875,1.16425 3.21875,3.15625 l 0,13.875 -2.03125,0 0,-13.875 c 0,-0.792 -0.4675,-1.28125 -1.1875,-1.28125 -0.72,0 -1.1875,0.48925 -1.1875,1.28125 l 0,13.875 -2.03125,0 0,-13.875 c 0,-1.992 1.37075,-3.15625 3.21875,-3.15625 z m 15.40625,0 c 1.848,0 3.21875,1.16425 3.21875,3.15625 l 0,1.65625 -2,0 0,-1.65625 c 0,-0.792 -0.49875,-1.28125 -1.21875,-1.28125 -0.72,0 -1.1875,0.48925 -1.1875,1.28125 l 0,10.96875 c 0,0.792 0.4675,1.28125 1.1875,1.28125 0.72,0 1.21875,-0.48925 1.21875,-1.28125 l 0,-1.71875 2,0 0,1.71875 c 0,1.992 -1.37075,3.15625 -3.21875,3.15625 -1.848,0 -3.1875,-1.16425 -3.1875,-3.15625 l 0,-10.96875 c 0,-1.992 1.3395,-3.15625 3.1875,-3.15625 z m -8.71875,0.25 2.03125,0 0,16.78125 -2.03125,0 0,-16.78125 z m 14.90625,0 5.21875,0 0,1.875 -3.1875,0 0,5.5625 2.84375,0 0,1.875 -2.84375,0 0,5.59375 3.1875,0 0,1.875 -5.21875,0 0,-16.78125 z"
       id="rect3837"
       inkscape:connector-curvature="0" />
  </g>
</svg>
