<?xml version="1.0" encoding="UTF-8" standalone="no"?>
<!-- Created with Inkscape (http://www.inkscape.org/) -->

<svg
   xmlns:dc="http://purl.org/dc/elements/1.1/"
   xmlns:cc="http://creativecommons.org/ns#"
   xmlns:rdf="http://www.w3.org/1999/02/22-rdf-syntax-ns#"
   xmlns:svg="http://www.w3.org/2000/svg"
   xmlns="http://www.w3.org/2000/svg"
   xmlns:sodipodi="http://sodipodi.sourceforge.net/DTD/sodipodi-0.dtd"
   xmlns:inkscape="http://www.inkscape.org/namespaces/inkscape"
   width="222.99117"
   height="69.700523"
   id="svg2"
   version="1.1"
   inkscape:version="0.48.4 r9939"
   sodipodi:docname="logo.svg">
  <defs
     id="defs4" />
  <sodipodi:namedview
     id="base"
     pagecolor="#ffffff"
     bordercolor="#666666"
     borderopacity="1.0"
     inkscape:pageopacity="0.0"
     inkscape:pageshadow="2"
     inkscape:zoom="3.959798"
     inkscape:cx="106.88816"
     inkscape:cy="24.409956"
     inkscape:document-units="px"
     inkscape:current-layer="layer1"
     showgrid="false"
     showguides="true"
     inkscape:guide-bbox="true"
     fit-margin-top="0"
     fit-margin-left="0"
     fit-margin-right="0"
     fit-margin-bottom="0"
     inkscape:window-width="1357"
     inkscape:window-height="584"
     inkscape:window-x="2313"
     inkscape:window-y="82"
     inkscape:window-maximized="0" />
  <metadata
     id="metadata7">
    <rdf:RDF>
      <cc:Work
         rdf:about="">
        <dc:format>image/svg+xml</dc:format>
        <dc:type
           rdf:resource="http://purl.org/dc/dcmitype/StillImage" />
        <dc:title />
      </cc:Work>
    </rdf:RDF>
  </metadata>
  <g
     inkscape:label="Layer 1"
     inkscape:groupmode="layer"
     id="layer1"
     transform="translate(-169.95818,-425.5625)">
    <rect
       style="fill:#5e57a6;fill-opacity:1;stroke:#ffffff;stroke-width:0;stroke-linejoin:round;stroke-miterlimit:4;stroke-opacity:1;stroke-dasharray:none"
       id="rect2993"
       width="222.99117"
       height="69.700523"
       x="169.95818"
       y="425.5625" />
    <g
       id="g3833"
       transform="translate(2.9116217,0)">
      <text
         sodipodi:linespacing="125%"
         id="text2985"
         y="474.86536"
         x="258.84454"
         style="font-size:40px;font-style:normal;font-variant:normal;font-weight:bold;font-stretch:condensed;line-height:125%;letter-spacing:0px;word-spacing:0px;fill:#ffffff;fill-opacity:1;stroke:none;font-family:DINPro;-inkscape-font-specification:DINPro Bold Condensed"
         xml:space="preserve"><tspan
           style="font-style:normal;font-variant:normal;font-weight:bold;font-stretch:condensed;font-family:DINPro;-inkscape-font-specification:DINPro Bold Condensed"
           y="474.86536"
           x="258.84454"
           id="tspan2987"
           sodipodi:role="line">2 Predict</tspan></text>
      <g
         id="g3829"
         transform="translate(-34,0)">
        <path
           style="fill:#ffffff;fill-opacity:1;stroke:#ffffff;stroke-width:0;stroke-linejoin:round;stroke-miterlimit:4;stroke-opacity:1;stroke-dasharray:none"
           d="m 215.65747,442.375 0,36.5625 66,0 0,-36.5625 -66,0 z m 14.78125,3.875 c 3.08001,0 5.375,1.96125 5.375,5.28125 l 0,23.125 -3.375,0 0,-23.125 c 0,-1.32 -0.8,-2.15625 -2,-2.15625 -1.19999,0 -2,0.83625 -2,2.15625 l 0,23.125 -3.34375,0 0,-23.125 c 0,-3.32 2.26375,-5.28125 5.34375,-5.28125 z m 24.03125,0 c 3.08001,0 5.375,1.96125 5.375,5.28125 l 0,2.71875 -3.375,0 0,-2.71875 c 0,-1.32 -0.8,-2.15625 -2,-2.15625 -1.19999,0 -2,0.83625 -2,2.15625 l 0,18.25 c 0,1.32 0.80001,2.15625 2,2.15625 1.2,0 2,-0.83625 2,-2.15625 l 0,-2.84375 3.375,0 0,2.84375 c 0,3.32 -2.29499,5.28125 -5.375,5.28125 -3.08,0 -5.34375,-1.96125 -5.34375,-5.28125 l 0,-18.25 c 0,-3.32 2.26375,-5.28125 5.34375,-5.28125 z m -13.6875,0.40625 3.375,0 0,28 -3.375,0 0,-28 z m 23.15625,0 8.6875,0 0,3.125 -5.3125,0 0,9.3125 4.75,0 0,3.125 -4.75,0 0,9.3125 5.3125,0 0,3.125 -8.6875,0 0,-28 z"
           id="rect3763"
           inkscape:connector-curvature="0" />
        <path
           style="fill:#ffffff;fill-opacity:1;stroke:#ffffff;stroke-width:1.46756852;stroke-linejoin:round;stroke-miterlimit:4;stroke-opacity:1;stroke-dasharray:none"
           d="m 213.08391,439.29286 0,43.455 71.14713,0 0,-43.455 -71.14713,0 z m 7.74467,5.82195 55.68037,0 0,31.81109 -55.68037,0 0,-31.81109 z"
           id="rect3774"
           inkscape:connector-curvature="0" />
      </g>
    </g>
  </g>
</svg>
